PathFileType	4	(X/Y/Z)	E:/Marcel_BSc/Marcel/30_01_2025/static_00_hjc.trc	
DataRate	CameraRate	NumFrames	NumMarkers	Units	OrigDataRate	OrigDataStartFrame	OrigNumFrames	
200.00	200.00	4	77	mm	200.00	139	158	
Frame#	Time	FHD			LBHD			RBHD			RBAR			LBAR			RASI			RSACR			LSACR			LASI			USACR			C7			CLAV			T10			RSHO			LSHO			LTHI1			LTHI3			LTHI2			LLFC			LMFC			LTIB1			LTIB2			LTIB3			LMMAL			LLMAL			LHEE			LMT1			LMT5			LMT3			RTHI1			RTHI2			RTHI3			RLFC			RMFC			RTIB1			RTIB3			RTIB2			RLMAL			RMMAL			RHEE			RMT5			RMT1			RMT3			LMEP			LLEP			LDUPA			LMUPA			LUUPA			LUL			LRAD			LRFIN			RUL			RRAD			RUFIN			RMEP			RLEP			RMUPA			RDUPA			RUUPA			*59			*60			*61			*62			*63			*64			*65			*66			*67			*68			*69			*70			LAJC			RAJC			LKJC			RKJC			LHJC			RHJC			
		X1	Y1	Z1	X2	Y2	Z2	X3	Y3	Z3	X4	Y4	Z4	X5	Y5	Z5	X6	Y6	Z6	X7	Y7	Z7	X8	Y8	Z8	X9	Y9	Z9	X10	Y10	Z10	X11	Y11	Z11	X12	Y12	Z12	X13	Y13	Z13	X14	Y14	Z14	X15	Y15	Z15	X16	Y16	Z16	X17	Y17	Z17	X18	Y18	Z18	X19	Y19	Z19	X20	Y20	Z20	X21	Y21	Z21	X22	Y22	Z22	X23	Y23	Z23	X24	Y24	Z24	X25	Y25	Z25	X26	Y26	Z26	X27	Y27	Z27	X28	Y28	Z28	X29	Y29	Z29	X30	Y30	Z30	X31	Y31	Z31	X32	Y32	Z32	X33	Y33	Z33	X34	Y34	Z34	X35	Y35	Z35	X36	Y36	Z36	X37	Y37	Z37	X38	Y38	Z38	X39	Y39	Z39	X40	Y40	Z40	X41	Y41	Z41	X42	Y42	Z42	X43	Y43	Z43	X44	Y44	Z44	X45	Y45	Z45	X46	Y46	Z46	X47	Y47	Z47	X48	Y48	Z48	X49	Y49	Z49	X50	Y50	Z50	X51	Y51	Z51	X52	Y52	Z52	X53	Y53	Z53	X54	Y54	Z54	X55	Y55	Z55	X56	Y56	Z56	X57	Y57	Z57	X58	Y58	Z58	X59	Y59	Z59	X60	Y60	Z60	X61	Y61	Z61	X62	Y62	Z62	X63	Y63	Z63	X64	Y64	Z64	X65	Y65	Z65	X66	Y66	Z66	X67	Y67	Z67	X68	Y68	Z68	X69	Y69	Z69	X70	Y70	Z70	X71	Y71	Z71	X72	Y72	Z72	X73	Y73	Z73	X74	Y74	Z74	X75	Y75	Z75	X76	Y76	Z76	X77	Y77	Z77	

139	0.690	101.41898	582.11841	1817.46240	133.86363	523.61414	1803.26526	130.14119	652.81622	1801.04626	1237.76599	1766.97583	37.49829	1248.08850	-457.80267	32.38056	101.91964	723.43024	1048.34448	311.03458	621.42114	1097.99878	307.03070	557.44910	1095.11414	96.47318	458.77829	1038.94470	302.79691	589.35217	1111.92200	278.91412	584.08154	1567.38416	116.34410	585.35181	1531.67102	282.82813	577.72644	1257.77148	239.58415	734.92255	1605.33936	223.47647	417.78244	1595.92346	229.06306	409.94522	706.96338	258.51523	428.55496	651.18396	211.48074	407.86026	643.79333	221.76974	415.06766	524.75073	174.83585	516.92157	506.37482	222.35014	399.75116	276.41937	269.62897	380.93921	274.85779	242.93117	391.81824	214.22984	268.03003	468.09476	92.45973	287.07953	380.57523	83.65557	344.06180	422.24103	39.05878	115.25333	434.39706	41.43198	145.15387	352.01974	26.12623	122.67085	388.92776	36.08302	208.12375	793.25659	674.92902	255.21574	773.98602	670.98419	226.53592	781.91071	613.10590	203.34549	778.47064	529.39575	179.59589	682.16803	508.76340	259.98056	811.59167	277.70898	291.64404	814.09766	219.50116	240.77589	809.98438	214.41779	292.80197	813.71918	75.42937	245.16260	736.41132	71.12463	339.89493	765.13635	30.52276	173.10440	862.68274	26.13439	109.42704	788.43579	42.55746	134.09172	828.99078	40.17102	161.35091	114.93322	1470.38757	234.13586	116.61275	1509.83240	259.92899	217.80379	1524.19348	227.21761	220.12988	1561.82434	236.07782	281.78629	1565.92151	171.50648	-167.02286	1563.44592	141.92943	-136.17657	1628.29395	168.21886	-235.73248	1657.34021	215.80135	1342.47754	1590.21619	194.69576	1309.17810	1657.19775	225.44252	1395.67175	1679.93835	178.24124	1045.76135	1483.75403	247.58522	1058.26453	1538.90320	246.29292	911.05237	1577.24316	254.24078	971.33069	1564.36401	281.22723	899.47424	1542.35999	126.58977	626.31213	1748.56128	124.54958	537.67322	1728.38464	76.29501	575.69177	1760.04504				144.79468	617.04358	1735.89490	105.05930	563.75726	1754.79797	74.93095	554.60443	1743.38025	-201.23512	-469.98880	23.73167	926.05066	517.93762	571.55798										277.55478	424.33499	88.05765	268.98228	775.06525	73.27700	198.30280	465.99461	515.56277	191.47069	730.31934	519.07957	201.75194	508.11369	1067.02942	206.47711	672.42569	1073.17163 
140	0.695	101.41563	582.12805	1817.48718	133.85358	523.62732	1803.27905	130.14163	652.83746	1801.05005	1237.76843	1766.95825	37.49057	1248.00574	-457.96741	32.42677	101.92599	723.43256	1048.32800	311.03156	621.41479	1098.01416	307.02832	557.43787	1095.12915	96.45871	458.76584	1038.94128	302.79282	589.33691	1111.94080	278.88794	584.07501	1567.39380	116.32192	585.35229	1531.67700	282.81570	577.74146	1257.77112	239.56818	734.93634	1605.35083	223.45375	417.78711	1595.94238	229.06488	409.93738	706.96643	258.51727	428.54828	651.19769	211.48616	407.85052	643.79663	221.77209	415.06284	524.75519	174.85558	516.90173	506.36456	222.41219	400.05948	276.33200	269.63077	380.92374	274.86459	242.93938	391.81509	214.23006	268.09366	468.07666	92.43908	287.08340	380.56735	83.66077	343.91541	422.37479	38.99422	115.25426	434.39114	41.42782	145.14905	352.01285	26.12114	122.67390	388.91885	36.07971	208.17082	793.29211	674.75439	255.24284	773.96747	670.98999	226.47739	781.95184	613.13190	203.36292	778.46722	529.40057	179.60851	682.16589	508.76352	259.98853	811.59656	277.71515	291.57535	814.05603	219.51701	240.78012	809.98871	214.41844	292.82281	813.71527	75.43328	245.16148	736.41223	71.12380	339.68924	765.35822	30.41366	173.10474	862.68890	26.13536	109.41386	788.45081	42.55779	134.10617	828.99133	40.15162	161.34630	114.92907	1470.39233	234.13713	116.59443	1509.84875	259.91467	217.78944	1524.23181	227.07637	219.75215	1561.92065	236.03691	281.80692	1565.93628	171.49222	-167.03020	1563.44568	141.90271	-136.17886	1628.30139	168.36449	-235.57935	1657.44690	215.76080	1342.48132	1590.17432	194.66219	1309.19177	1657.15918	225.40862	1395.68237	1679.89636	178.24768	1045.80835	1483.50220	247.54613	1058.28625	1538.88672	246.28407	911.05975	1577.22021	254.21684	971.32965	1564.32312	281.19412	899.49554	1542.32263				124.49243	537.69006	1728.39722	76.34309	575.69299	1760.16333	1235.27905	-221.33104	42.45568				105.04627	563.73877	1754.84424	74.92871	554.60645	1743.37598	-201.21114	-469.90417	23.69107	926.08282	517.90277	571.45642										277.58853	424.32201	88.04992	268.99215	775.06375	73.27854	198.31384	465.98228	515.55988	191.48571	730.31656	519.08205	201.74352	508.10185	1067.03522	206.47878	672.42368	1073.17108 
141	0.700	101.41708	582.14319	1817.46924	133.82559	523.64264	1803.28491	130.13539	652.84833	1801.05518	1237.76904	1766.96545	37.49727	1247.99646	-457.98938	32.44506	101.91042	723.44110	1048.32935	311.03223	621.41406	1098.01465	306.97729	557.37897	1095.20850	96.44901	458.76877	1038.93933	302.79272	589.32617	1111.94287	278.87170	584.08502	1567.39673	116.30987	585.34833	1531.67566	282.81836	577.74683	1257.77954	239.55443	734.94855	1605.35034	223.43114	417.79120	1595.95166	229.06557	409.92960	706.96973	258.51828	428.54034	651.19086	211.48500	407.85001	643.81219	221.79323	415.04901	524.76196	174.85695	516.90637	506.37747	222.47198	400.05771	276.35864	269.62634	380.92480	274.87018	242.94821	391.81668	214.22920	268.09171	468.08160	92.43800	287.08353	380.56445	83.66650	343.93362	422.29730	39.08261	115.25568	434.38672	41.42730	145.14812	352.01208	26.12115	122.67072	388.91794	36.07410	208.38437	793.04498	674.99506	255.25475	773.96643	670.98749	226.56975	781.90070	613.11444	203.37936	778.46667	529.39978	179.62329	682.16217	508.75989	259.99243	811.60309	277.72354	291.75626	814.21155	219.42317	240.78809	810.00122	214.42682	292.82187	813.71460	75.42893	245.17044	736.41724	71.12296	340.13651	765.31787	30.55560	173.11322	862.68842	26.13007	109.42502	788.43872	42.56578	134.11150	828.98511	40.16349	161.32143	114.92088	1470.39966	234.09436	116.60537	1509.85339	259.88718	217.78909	1524.26892	227.13770	220.07579	1561.88611	235.99551	281.80435	1565.94971	171.46793	-167.02625	1563.44934	141.86465	-136.17885	1628.30347	168.34500	-235.57324	1657.47363	215.72707	1342.48755	1590.13831	194.62427	1309.21130	1657.12256	225.36617	1395.70032	1679.83911	178.19539	1045.77588	1483.71082	247.40350	1058.35718	1538.83777	246.26608	911.07471	1577.19971	254.19127	971.33392	1564.30676	281.17029	899.50128	1542.29504	127.47517	625.95905	1748.40112	124.46916	537.71838	1728.38440	76.27978	575.73206	1760.03992				1239.44104	-61.62615	57.13394	102.68777	568.48151	1755.48962	74.91246	554.61066	1743.38892	-201.23779	-469.96616	23.70350	926.13037	517.93390	571.49487										277.58762	424.32303	88.05225	268.99615	775.06592	73.27594	198.32509	465.97769	515.56972	191.50133	730.31442	519.07983	201.71315	508.07387	1067.07391	206.47132	672.42758	1073.17200 
142	0.705	101.39795	582.14734	1817.47998	133.81046	523.65662	1803.28784	130.12743	652.86987	1801.04944	1237.76221	1766.97217	37.49825	1247.93774	-457.96210	32.32449	101.90361	723.43677	1048.31433	311.02255	621.39911	1098.03308	307.00745	557.42041	1095.14697	96.43976	458.76376	1038.92676	302.78110	589.32483	1111.95361	278.86066	584.08411	1567.39941	116.28993	585.35150	1531.67749	282.80463	577.75305	1257.77075	239.54416	734.96368	1605.35962	223.40739	417.79062	1595.96985	229.06114	409.93179	706.97351	258.52612	428.52048	651.19458	211.49625	407.84860	643.81476	221.79739	415.04825	524.76031	174.87830	516.89227	506.36029	222.43123	399.68674	276.49036	269.64041	380.91284	274.86935	242.95517	391.80325	214.25346	268.09052	468.06793	92.45410	287.07819	380.55655	83.67043	343.91116	422.37186	38.98313	115.24912	434.38629	41.42750	145.15091	352.01025	26.11911	122.67677	388.91638	36.07782	208.41559	793.03516	675.00391	255.26726	773.96771	670.98785	226.53996	781.95648	613.05682	203.38968	778.45691	529.41772	179.64059	682.15924	508.75272	259.99927	811.59955	277.72296	291.77289	814.21521	219.40814	240.79106	809.98944	214.42215	292.81696	813.72290	75.42857	245.16713	736.41827	71.12890	339.78198	765.27020	30.47803	173.12465	862.68182	26.11829	109.42702	788.44415	42.55771	134.10863	828.98065	40.16808	161.17653	114.96207	1470.61047	234.05440	116.60771	1509.86829	259.85980	217.78265	1524.30493	227.10266	220.12364	1561.89587	235.97253	281.78412	1565.98657	171.42599	-167.01363	1563.45239	141.83934	-136.18243	1628.30701	168.32100	-235.57738	1657.47034	215.68510	1342.49304	1590.08789	194.58382	1309.23425	1657.08289	225.32579	1395.73303	1679.79993	178.31665	1045.98438	1483.72009	247.46866	1058.30396	1538.86536	246.23770	911.09119	1577.18274	254.15691	971.36035	1564.28845	281.12497	899.51630	1542.25403				124.49638	537.69788	1728.36072	76.28227	575.81598	1760.14038				1239.48279	-61.85578	56.68586	104.94578	563.88934	1754.91479	74.91317	554.59515	1743.39099	-201.17110	-470.26483	23.95834													277.58435	424.31224	88.06227	268.99204	775.07059	73.27873	198.33784	465.97026	515.56030	191.51514	730.30807	519.08522	201.72360	508.09209	1067.03687	206.46308	672.41794	1073.17371 
